<svg xmlns="http://www.w3.org/2000/svg" viewBox="0 0 198.47 198.74"><defs><style>.cls-1{fill:#2b2b2b;}.cls-2{fill:#898989;}.cls-3{fill:#292929;}.cls-4{fill:#f3f3f3;}.cls-5{fill:#fafafa;}.cls-6{fill:#8e8e8e;}.cls-7{fill:#2d2d2d;}.cls-8{fill:#2c2c2c;}.cls-9{fill:#303030;}.cls-10{fill:#6d6d6d;}.cls-11{fill:#585858;}.cls-12{fill:#fcfcfc;}.cls-13{fill:#3a3a3a;}.cls-14{fill:#f8f8f8;}.cls-15{fill:#434343;}.cls-16{fill:#1e1e1e;}.cls-17{fill:#606060;}.cls-18{fill:#f0f0f0;}.cls-19{fill:#cacaca;}.cls-20{fill:#2a2a2a;}.cls-21{fill:#595959;}.cls-22{fill:#ededed;}.cls-23{fill:#eee;}.cls-24{fill:#ececec;}.cls-25{fill:#efefef;}.cls-26{fill:#191919;}.cls-27{fill:#ebebeb;}.cls-28{fill:#6a6a6a;}.cls-29{fill:#222;}.cls-30{fill:#848484;}.cls-31{fill:#8a8a8a;}.cls-32{fill:#e0e0e0;}.cls-33{fill:#929292;}.cls-34{fill:#202020;}.cls-35{fill:#e1e1e1;}.cls-36{fill:#f7f7f7;}.cls-37{fill:#454545;}.cls-38{fill:#383838;}.cls-39{fill:#373737;}.cls-40{fill:#1d1d1d;}.cls-41{fill:#d1d1d1;}.cls-42{fill:#575757;}.cls-43{fill:#3e3e3e;}.cls-44{fill:#e7e7e7;}</style></defs><g id="Layer_2" data-name="Layer 2"><g id="Layer_1-2" data-name="Layer 1"><path class="cls-1" d="M16.91,187.67c-4.15-5.64-7.86-11.38-7.1-18.95.15-1.43-1-3.13-1.85-4.51-2.23-3.57-2.41-7,.07-10.53a1.4,1.4,0,0,1,1.31-.32,2.79,2.79,0,0,1,1.6,2.35c.4,6.92,3.72,13,5.74,19.42,1.68,5.32,5.81,7.83,11.39,8a64.39,64.39,0,0,0,13.37-1c2.44-.42,3.5-1.65,3.18-4.1-.15-1.15-.1-2.33-.31-3.47-.48-2.61-.7-5.46-3.71-6.55s-5,1-6.93,2.8c-.61.57-1.21,1.14-1.83,1.69-1.45,1.26-3,2.29-4.91,1.06-2.12-1.37-1.9-3.27-1-5.27a3.14,3.14,0,0,0,.51-1.89.76.76,0,0,0-.72-.6c-2.37,0-5.2,1.2-6.3-2.2-1-3.08,1.71-4.38,3.24-6.19,1.37-1.63,3.64-1.43,5.35-2.41,2.72-1.47,3.59-3.23.9-5.58-.43-1.12-1.24-2.06-1.45-3.27a6.68,6.68,0,0,0-2.11-5.35,11.05,11.05,0,0,1-2.22-2.64c-.91-1.72-1.38-3.5.48-4.87,1.65-1.22,3.05-.34,4.42.79,3.7,3,3.49,2.93,5.3-1.61,1.28-3.2.17-7.6,4.42-9.41,3.29-3.9,7.5-4.43,12.37-4.19,5.43.26,11.21,1.76,16.1-2.15.75-2.45-3-4.46-.71-7a4.43,4.43,0,0,1,2.87-2.41c3.49-.67,4.29,2.25,5.72,4.31,3.39,1.14,2.48-1.53,2.83-3.09-.35,1.47.67,4-2.56,3.29a2.42,2.42,0,0,1-1.09-1.5c-1.23-5.8-4.75-9.46-10.23-11.43a2.17,2.17,0,0,1-1.18-1.5c-.08-2.91,1.57-3.73,4.16-3.4a57.61,57.61,0,0,1,5.85.84c-2.8-.56-5.1-2.21-7.38-3.73-6-4-12.17-4.7-18.86-1.82-2,.86-4.05,2.58-6.52,1.06a1,1,0,0,1-.32-.83c0-.31.09-.46.16-.46,1.71-5,4.86-8.54,10.26-9.61,4.94-1,7.46-3.71,6.67-8.94,1.49-.62,2.25.36,3,1.37,5,9.12,13.22,14,22.57,17.5,1.32.49,2.63-.14,4,0,4.08,2.28,7.87,5.08,12.17,7a21.9,21.9,0,0,1,1.65,2.42,3.34,3.34,0,0,1-.14,4.51,2.89,2.89,0,0,1-4,.65c-2.53-1.69-4.28-.48-6,1.15-1.62,1.1-3.79-1.07-5.25.91-2.1,4-2.76,7.91.83,11.5,11.18,3.65,22.39,2.45,33.58.26a11.66,11.66,0,0,1,1.29-.34c.37-.22.75-.42,1.1-.67,3.1-5.74,1.93-11.13-1.26-16.38-1.5-4.07,2-5.42,4-7.63,1.15-1.24,2.71-.61,4.09-.9.5-.11,1.18-.13,1.36-.84a3.52,3.52,0,0,1-1.82-.6,9,9,0,0,1-1.59-2.59c-.09-4.52,4.25-6.21,6.28-9.37,1.69-2.64,2.39-4.61,1.18-7.33.37-1.63.07-3.32.35-5,0-6.59-2.19-9.17-10.31-11.92-.67-.15-1.33-.36-2-.49a4.16,4.16,0,0,1-1.35-.27c-.75,0-1.22-.71-1.9-.9-1.73-1.23-4.18-1.32-5.4-3.35-1.17-2.28-5.22-3.63-3-7,2.07-3.16,5.09-.94,7.67-.37a54.91,54.91,0,0,1,15.4,5.87c.17-2.76-5.13-5.65.53-8.1,3,3.63,4.41,8.13,6.8,12.09.92,1.53.57,3.13.26,4.81-1.86,10,.61,14.81,10.33,18.12A31.39,31.39,0,0,1,166,86.25c.8,1.09,1.9,2.14,1.62,3.48-.91,4.35,1.74,7.11,4.15,10a4.07,4.07,0,0,1-2.65,4.27c-3.47.71-4.59-1.87-5.78-4.23-4.47-8.84-4.9-8.48-14.57-7.73-8,.61-13.62,5.41-20,9-2.61,1.48-1.69,14.47,1,15.69.57.26,1.27-.21,1.88-.5,1.89-.64,3-2.29,4.33-3.56,2.56-1.88,4.55-4.35,6.85-6.5,1.43-1.34,2.83-2.87,5.13-2.41,1.65.48,1.7,2.21,2.56,3.37,1.67-.49,2.45-2.06,3.73-3a20.31,20.31,0,0,1,2.71-4.51c1.43-1.54,2.9-3.09,5-1.58,2.31,1.64,2.2,4.18.65,6.08s-3.38,3.93-4.28,6.43a7.15,7.15,0,0,1-1.29,2.05c-4.16,5.23-4.2,5.31,1,8.94,1.47,1,1.93,3.18,4,3.35s3.34-.73,4.64-2.59,1.94-4.67,5.09-4.4a2.66,2.66,0,0,1,1.13.94c1.3,8-2.71,13-9.35,16.43-1.21.74-2.27,1.59-2.37,3.16-.63,1.16-.9,2.31,0,3.46.89,2.33,3.06,2.1,4.93,2.48,8.37-1.16,11.54,6.53,17.06,10.18a3.29,3.29,0,0,1,.21,5.06c-1.58,1.63-2.85.16-4.15-1-.93-.82-1.95-1.58-2.9-2.39,1.64,1.48,3.29,3,5.05,4.28,3.19,2.37,2.49,5.2,1.11,7.93-1.49,2.93-4.15,2.31-6.52,1.25-3.6-1.6-7.36-2.91-10.67-5.68.3,1.73.18,3.6-1.28,3.62-6.13.1-4.6,4.63-5,8.08a4.69,4.69,0,0,0,0,1,11,11,0,0,0,.63,2.94,10.09,10.09,0,0,0,.54,1c5,2.39,9.89,2,14.79-.11.3-.36.6-.71.89-1.09a3.49,3.49,0,0,1,1.2-.81c4.08-.85,5.39-4,6.27-7.52.6-2.44,1.21-5,4.68-4.68a4.93,4.93,0,0,1,2.43,1.84c.63,2.08-.08,4.21.25,6.3-1.19,5.76-5,10.14-7.9,15a3.23,3.23,0,0,1-3.58,2.52c-2.76-.06-5.37.88-8,1.45-4.28.18-8.56-.18-12.83.21a2,2,0,0,1-1.56,0c-2.29-.09-3.46,1.77-5,2.88l-.93.23c-14.1.52-28.2.2-42.3.2-18.26,0-36.51.26-54.76-.15l-.93-.19c-7.73-5.4-16.51-2.58-24.85-3.15-2.08-.15-4.28.51-6.08-1.13-1-1-2.31-.73-3.48-1.07-.83-.37-1.11-1.17-1.48-1.91A6.37,6.37,0,0,1,16.91,187.67Z"/><path class="cls-2" d="M132.89,39.69c-.81,3.11,1.51,5.24,2.43,7.82.69,2,2.19,3.7,1.39,7-7.41-7.21-16.63-9.11-25.86-11.55-.5,2.92,3.25,2.75,2.73,5.14a2.3,2.3,0,0,1-2.12,1.84c-2.27-.27-4-2-6.31-2.26-4.66-.46-9.29-.81-13.85.65-4.08-.2-8,2.4-12.12.9-1.47-3.56-.5-5.49,3.73-6.3,2.5-.49,5-.81,6.92-2a14.73,14.73,0,0,0-1.74.85c-1.57.66-3.43,1.2-4.29-.68-1.1-2.42,1.28-2.52,2.69-3.12,2.94-1.24,6.11-1.66,8-2.32-8.94.48-15.9,8-24.63,11.58-.76.32-1.4.91-2.15,1.26-1.69.8-3.54,1.67-5-.21-1.61-2.1,0-3.79,1.35-5.12,2.32-2.34,5.44-3.71,7.84-6a13.32,13.32,0,0,1,2.45-1.86c-1.86,1.49-3.81,3.15-5.94,4.57a2.08,2.08,0,0,1-3.21-2.59C67.91,31,71,25,77.72,22.3c2.44-1-.06-.92-.11-1a2.31,2.31,0,0,1-.54-3.17c2.56-3.87,4.27-8.29,7.4-11.79,1.4-1.55,3.47-1.89,5.38-2.48C93.16,3.3,96.4,2.32,99.76,2c2.39-.62,4.53-3.49,7.3-.85,3.16,4.09,7.27,7.27,10.63,11.16,2.69,3.67,6.78,5.65,10.19,8.44,2.74,2.24,3.07,4.21-.3,6.06-7.21-.68-12.3-5.13-16.15-8.82a29.3,29.3,0,0,0,12.12,7.94c3,1,3.22,3.7,4.57,5.74,1.64,2.7,2.61,5.8,4.82,8.16Z"/><path class="cls-3" d="M89.78,4.73c-7.28,1.59-8.32,8.5-11.32,13.62-1.12,1.91.6,2,2.15,1.55,1.84-.58,3.34-2.2,6.44-1.76C79.19,24.46,68.33,27,66.71,38.81c4.66-2.37,8.22-6.5,13.49-7.69C75.17,36.74,68.87,41,64.09,47c12.16-5.64,23.43-13.76,38-12.25L85.51,39.67C89,41.21,92,38.74,96.67,39L78.73,47.47a3.06,3.06,0,0,1-2.92,3.38c-7.82,1.06-13,6.36-18.26,11.47-1.16,1.13-2.09,2.14-3.75,2.2-2.68-2.87-.74-4.92,1.47-6.49,2.8-2,4-4.55,4.51-7.86A49.53,49.53,0,0,1,73,23.18c3.87-4.05,6-9.78,8.79-14.84,1.56-2.86,3.62-4.67,7-4.66C89.85,3.33,90.11,3.75,89.78,4.73Z"/><path class="cls-4" d="M53.8,64.52c5.77-7,11.75-13.73,21.18-15.87,1.28-.28,2.5-.78,3.75-1.18,4.31,1.21,8-2.21,12.17-1.71a4.2,4.2,0,0,0,1.42.85c4.38.33,8.78,0,13.17.18,2.22.08,4.62-.28,6.27,1.82l1.82-.55,5.16,2.78a1.76,1.76,0,0,0,2.2,0,2.19,2.19,0,0,1,1,.09,8,8,0,0,1,1,.86c8.3,1,11.7,6.44,12.89,14-1.61,2.49-2.22,2.81-4,.92-6.47-7.09-15.52-9.46-23.77-13.23-5.77-2.64-11.83-.56-17.73-.09a81.86,81.86,0,0,0-19,3.92c-5.9,1.93-10.09,5.18-9.29,12.23a3.14,3.14,0,0,1-.53,1.9c-1,.88-1.91,2.13-3.57,1.36l-2-2.21Z"/><path class="cls-1" d="M189.79,168.67l-2-1.09c-2.22-.85-2.73-2.92-2.9-4.84-.84-9.31-5.26-17.52-8-26.22-1.89-5.91-4.5-11.57-5-17.85l0,0c-4.12-4.83-4.16-10.43-3-16.24l2.9-2.73c.4.71,1.18,1.43,1.15,2.12-.47,9.16,3.33,17.16,6.68,25.29,5.12,12.43,9.31,25.14,11.26,38.51C190.15,166.55,191.2,168,189.79,168.67Z"/><path class="cls-5" d="M151.72,197.33c-1.68,1.37-3.7,1.31-5.7,1.31q-44.4,0-88.8,0c-1.36,0-3.08.69-4-1.15,1.46-1.11,3.18-.8,4.81-.8q44.4,0,88.8,0C148.5,196.66,150.2,196.41,151.72,197.33Z"/><path class="cls-6" d="M151.72,197.33c-16.57.1-33.15.27-49.73.29-16.25,0-32.5-.1-48.75-.15-.1-.23-.21-.46-.32-.69l0-.41c14-.5,27.93-.18,41.9-.2,19,0,37.92-.16,56.89.08l.09.44A3.44,3.44,0,0,1,151.72,197.33Z"/><path class="cls-1" d="M9.28,153.76,8,153.68c4.16-12,9.67-23.44,15-35a1.87,1.87,0,0,1,2.2.6c1.73,2.46.45,4.81-.43,7.05-3.19,8.16-7.36,15.89-10.92,23.9C13,152.08,12.27,154.55,9.28,153.76Z"/><path class="cls-7" d="M127.78,32.12c-1.42-1.82-2.57-4.11-5-4.71-8.7-2.19-12.09-10.72-18.63-15.56,7.12,5.46,14.37,10.62,22.7,14,.75.47,1.67.87,1,2.05l.11,2.48A1.26,1.26,0,0,1,127.78,32.12Z"/><path class="cls-8" d="M24.12,120.08,23,118.72c1.65-8.86,7.83-15.71,10.62-24,1-3,2.22-5,5.38-5.63l-.08.12a2,2,0,0,1,.92,3c-1.53,2.95-2,6.36-3.57,9.21-3.08,5.44-6.55,10.65-8.75,16.57C27,119.36,26,120.52,24.12,120.08Z"/><path class="cls-9" d="M127.93,27.93l-1-2.05c3.25-1.73,1.14-3.3-.35-4.46a70.52,70.52,0,0,0-7.07-4.64,4.9,4.9,0,0,1-2.63-4.94,1,1,0,0,1,.18-1.49c3.63,2.87,7.28,5.7,10.88,8.61C132.84,23,132.82,23.93,127.93,27.93Z"/><path class="cls-10" d="M157.76,193.47c4.59-1.62,9.36-.39,14-.87,8-2.3,16-1.72,24.08-.9l-.08,1.48c-.31,1-1.17,1-2,1H159.54A2.32,2.32,0,0,1,157.76,193.47Z"/><path class="cls-11" d="M19,190.63a3.31,3.31,0,0,1,3,1.87c-5.84.05-11.68,0-17.51.19C2.28,192.75.6,192.35,0,190c1.14-1.54,2.69-.59,4.07-.67,3.4.71,6.85.25,10.27.33C16,189.66,17.64,189.32,19,190.63Z"/><path class="cls-12" d="M157.76,193.47c12.68.18,25.36.66,38-.29a5.52,5.52,0,0,1-3.64,1.4c-11,0-21.92,0-32.88-.09a8.79,8.79,0,0,1-2.38-.68A3,3,0,0,1,157.76,193.47Z"/><path class="cls-13" d="M195.87,191.7c-8.06-.62-16.06.34-24.08.9.31-2.55,2.34-1.84,3.83-1.91,2.47-.11,4.94,0,7.27-1.05,5.05,1.67,10.37.15,15.58,1.23C197.8,192.14,196.7,191.47,195.87,191.7Z"/><path class="cls-9" d="M117,10.35l-.18,1.49c-3.55-3.31-8.15-5.68-9.78-10.74C110.91,3.61,113.66,7.31,117,10.35Z"/><path class="cls-14" d="M4,189.83,0,190c3-2.11,6.38-1.13,9.61-1.29,2.47-.13,5,0,7.3-1l1.24,1c0,1.36-1,1.51-2,1.47C12.1,190,8.05,190.55,4,189.83Z"/><path class="cls-15" d="M127.78,32.12c.09-.57.17-1.14.26-1.71a40.43,40.43,0,0,1,4.9,9.37C129.49,38.39,129.09,35,127.78,32.12Z"/><path class="cls-16" d="M189.79,168.67c.34-1,.68-2,1-3a12.66,12.66,0,0,1,0,9C189.66,172.8,189.83,170.72,189.79,168.67Z"/><path class="cls-17" d="M89.78,4.73l-1-1.05c3.53-1.36,7.14-2.3,11-1.73Z"/><path class="cls-8" d="M59.86,70.76c-1.67-8.32.19-11.77,8.43-15.06C80.05,51,92.48,50,104.93,49.8c4.84-.07,9,3.25,13.28,5.28C124,57.8,130.48,59.57,134,65.69c.38.65,1.15.47,1.75,0,1.18,1.57.91,3.18.11,4.79-2.46,7.9-8.35,13.17-14.11,18.55a3.08,3.08,0,0,1-3.17.77c-1.73-.74-2-2.75-3.33-3.82-.51-.44-1.2-.82-1.74-.43-3.76,2.73-8.2,2.53-12.4,3a14.77,14.77,0,0,1,3.08,2.55c-1.23,4.38-4.8,4-8.08,3.74a12.2,12.2,0,0,1-7.54-3.83c-1.39-1.37-2.43-2.83-1.71-4.79s2.72-1.49,4.31-1.56c1.33-.06,2.66,0,4,0-8.91,0-8.91,0-11,6.15-.61.29-1.29.64-1.89.29-7.82-4.53-16.11-8.41-21.8-15.87A3.94,3.94,0,0,1,59.86,70.76Z"/><path class="cls-2" d="M24.12,120.08C28,109.27,34.32,99.66,38.91,89.2,51.27,82.07,62.45,85,73,93.19c1.67,1.29,4,1.62,5.81,3.8-5.63,1.15-10.9-1.67-16.09-.09.05,1.79,1.65,2.17,2.65,3.17,1.5,1.51,3.33,3.42,1.25,5.89-1.63,1.1-2.82.34-3.69-1-1.73-2.8-4.16-5.07-5.72-7.38,1.18,2.88,5.67,4.42,5.14,8.85-.81,1-2,1.17-3.11,1.59-1.68.26-2.62-.84-3.55-1.93-.64-.75-1.24-1.57-2.12-.23-2.89,1.82-4.59-.33-6.57-1.91,4.07,3,3.27,6.46.9,10-.53,1.42-1,2.89-2.82,3.15-2.28.1-3.77-1.2-5.11-2.83-.68-.82-1.31-2.23-2.61-1.25-1,.79-.54,2.1-.11,3.17s1.44,1.79,1.64,3a5.73,5.73,0,0,1-1.08,5c-.14,4.92-3.33,9.4-2.11,14.54a2.71,2.71,0,0,1-1.48,2.93c-1.39.86-2.7.16-3.6-.75-2-2-3.72-4.16-5.93-6,1.16,4.29,5.1,7.1,6.15,11.4-3,2-3.35,4.36-.9,7.07,0,1.42.82,2.83,0,4.25-3.23,1.18-6.66,2-8.93,5.8,3.1,1,5.48-1,8-1.43,1.28-.23,2.78-.95,3.6.53.71,1.28-.75,2-1.38,2.92-1.45,2-4,3.48-3.64,7.12,3.53-1.61,5.25-4.57,7.69-6.65C39.58,162.29,45,164,46,169.35c.78,4.24,1.4,8.52,2,12.8.21,1.45.59,2.89-2,2.86a119.39,119.39,0,0,0-14.89.63c-12.51,1.43-16.49-6.32-18.82-15.42-.54-2.1-.83-4.24-2-6.09a10.48,10.48,0,0,1-1-10.37C14.28,142.56,20.47,131.88,24.12,120.08Z"/><path class="cls-2" d="M171.8,118.67a153.9,153.9,0,0,1,16,48.91c-1.42,1.54-1.62,3.54-2.16,5.44-1.18,4.13-3.08,7.7-7.83,8.61-5.87,1-11.79.31-17.68.51-4,.14-3.67-2.84-4.07-5.35.29-3,.95-6,.79-8.91-.24-4.41,1.12-5.14,4.67-2.78.62.41,1.26,1.16,2.24.51-.62-2.3-3.68-2.19-4.52-4.74,5.83.34,10.5,3.29,15.45,5.42,1.79.77,3.83,3.37,5.67,1s.38-4.92-1.52-7.1c-2.4-2.75-4.54-5.71-6.09-7.69,2.67.81,5.66,4.29,10.1,6.61-2-5.13-12.59-12.44-17-12.53-.41-4.34-5.11-7.25-4.06-12.08C166.92,130.41,172,126.22,171.8,118.67Z"/><path class="cls-2" d="M168.83,102.48c3.24,5,1.32,11,3,16.24-3.49,2.89-5,7.5-8.79,10.13a40.43,40.43,0,0,1-5.59-14c-.09-1.18,1.32-2.56-.46-3.53-.07-.19-.14-.38-.2-.57.21-4.1,4.58-6.45,4.74-11.13-3.59.93-4.1,4.42-6.29,6.11-2.34,1.67-4.13-.68-6.24-.82-2.38-1.37-4.43-.71-6.13,1.17-1.15,1.26-2.32,2.29-4.16,2.13a13.3,13.3,0,0,1-4.38-.53c-2.34-.69-4.87-1-5.62,2.08-.69,2.82-.77,5.75,3,6.7a4.82,4.82,0,0,1,2.09,1.24c-.39,4.11-3.83,3.86-6.35,3.78-2.91-.09-2.54-3-2.62-5.08-.1-2.65.06-5.31-.07-8-.28-5.42,1.64-8.37,6.37-12.25,6.48-5.31,14-4.67,20.63-7.87,4.16-2,11.25,3,12,7.69C164.38,99.14,166.47,100.87,168.83,102.48Z"/><path class="cls-18" d="M79.89,120.16c0-5.23,0-10.46.15-15.69,0-1.12-.6-3.58,2.12-1.83,6.78,4.67,13.84,6.2,21.41,1.88a55.42,55.42,0,0,0,9.15-1.4c8.63-2.27,8.63-2.27,8.64,6.81v4c-.11,1.85.28,3.76-.68,5.51a5.38,5.38,0,0,1-4.41,1.82c-11.47-.06-22.94,0-34.42,0C81,121.19,80.17,121.22,79.89,120.16Z"/><path class="cls-19" d="M83.62,90.5c-1-1.71-2-3.45-3-5.12-1.53-2.38-.23-4.14,1.82-3.33,6.55,2.57,13.38.94,21.28,2.11-5.53,2.79-10.45.74-14.91,1.89,1.36,6.58,8.44,8.87,14.28,4.63.62-2-1.76-1.72-2.15-2.94a27.33,27.33,0,0,0,12.18-5.65c1-.86,1.52-2.81,3.48-1.66s.75,2.86.56,4.37a6,6,0,0,1-2.61,5.27A106.73,106.73,0,0,0,105,97.8c-2.63,2.46-5.41,2.85-8.17.11-4.91-.2-7.48-5-12-6C84.54,91.33,83.71,91.26,83.62,90.5Z"/><path class="cls-20" d="M96.83,97.91c3.59,1.6,6.08-.21,8.57-2.56,3.81-3.62,7.81-7,11.73-10.55l1.74,3.45c2.86,4-2.23,4.51-3.08,6.87-1,2.25-3.92,1.07-5.16,2.78,5.18-.4,6.76-5.44,10.35-7.85,1.79-1.19,2.84-4,5.77-2.34.39.74.77,1.48,1.16,2.21,1,2.85-1.81,2.66-3,3.75-1.94,2-4.22,3.83-4,7.06l-.3.6a43,43,0,0,0-7.66,4.23c-2.78,1.81-5.85,1.49-8.91,1.23-4.59,2-9,.6-13.48-.6a2,2,0,0,1-1.61-2.54c1.57-2,3.42-2.92,5.95-1.73,1.05.48,2.51.84,3-.54s-1.34-.92-1.92-1.5C94.52,98.51,96.48,98.56,96.83,97.91Z"/><path class="cls-21" d="M126.75,87.71c-5.94,5.19-10.78,11.89-19,13.9-1.16-1.52-.63-2.59.74-3.69,1.79-1.45,3.55-2.91,5.43-4.22,1.67-1.82,3.33-3.64,5-5.45,6.18-5.41,11.34-11.82,17-17.72C136.8,78.36,131.05,82.65,126.75,87.71Z"/><path class="cls-22" d="M133.84,117.7c-1.5,2.35-3.77,2.53-6.12,1.93-2.7-.7-1.81-3.14-2.09-5a12.35,12.35,0,0,1,0-1.49c-.16-10.5,1.66-11.66,11.27-7.2.6.28,1.21.53,1.82.79,1.81,1.22.9,2.41,0,3.61-.81,1-2.17,1.75-1.91,3.39C136.79,115.81,134.79,116.37,133.84,117.7Z"/><path class="cls-23" d="M158.79,114.49c1.57,2.37,2.12,5.16,4.87,7.08s-1.12,4.72-.6,7.28c-1.19,1-2,3.19-3.89,2.41-1.61-.67-.82-2.62-.93-4.07-.25-3.38-2.11-4.92-8.34-7,2.12-3.33,3.35-7.18,6.91-9.39l-.09,0C158.34,111.49,158,113.28,158.79,114.49Z"/><path class="cls-24" d="M37.85,124.16a8.44,8.44,0,0,1-1-4.51,4.14,4.14,0,0,1-.88-3.26c0-1.14-.21-2.48,1.14-3s2.25.16,3.16,1.31a3.12,3.12,0,0,0,3.81,1.17c1.7-.53,1.61-2,1.84-3.37.68-.59,1.72-1,2.27-.44,4.14,4,9.57,4,14.69,5,3.61,1.3,7.94-.33,11.11,2.75-5.8,1.82-11.77.82-17.64.82C49.86,120.55,43.48,120.2,37.85,124.16Z"/><path class="cls-22" d="M66,105.67a8.81,8.81,0,0,0-2.5-4.56c-1.09-1.24-2.08-2.54-.71-4.21.38.28.76.83,1.14.82,9.81-.2,11,6.47,11.14,14,.26,1-.19,1.32-1.09,1.3l-5.23-4.21C67.2,108.26,65.7,107.75,66,105.67Z"/><path class="cls-25" d="M74,119.73c-4-.4-8.22.86-12.1-1.15a42.72,42.72,0,0,0-4.07-6.2c-1.12-1.28-2-2.66-1-4.45.48-.86,1.62-.56,2.2-1.25.67-1.24,1.91-.87,3-1,3.68-.12,4.12,2.71,4.84,5.29.27,2.63,2.81,3.37,4.2,5.06C72,117.22,74.24,117.49,74,119.73Z"/><path class="cls-26" d="M151.75,196.25c-3.32.14-6.64.39-10,.38q-44.41-.09-88.83-.26a43,43,0,0,1,5.38-.69q44-.06,88,0A49.89,49.89,0,0,1,151.75,196.25Z"/><path class="cls-18" d="M83.62,90.5l1.26,1.36c-5.42.77-9-3.3-13.28-5.29-6.15-2.85-10.34-8-13.68-13.83l1.94-2c.68,4.58,4.55,6.76,7.55,9.36A67.94,67.94,0,0,0,83.62,90.5Z"/><path class="cls-27" d="M161.71,134.52c1.72.95,3,2.53,4.51,3.7,2.89,2.28,1.39,5.63-.45,8.38-2.66-.25-6.68,1.62-6-3.84-1.65-1.77.74-3.33.26-5C159.68,136.17,160.66,135.33,161.71,134.52Z"/><path class="cls-27" d="M148.9,103.68c1.62-.78,1.36-2.88,2.86-4.1,2.62,1.25,0,5.61,3.5,6.15a33,33,0,0,1-6.15,7c-.72.59-1.49,1.67-2.47.83a2.76,2.76,0,0,1-.43-2.29c.53-2.22,1.28-4.38,1.94-6.56A1.15,1.15,0,0,1,148.9,103.68Z"/><path class="cls-11" d="M88.9,103.65A32.48,32.48,0,0,0,104,106.79c-6,4.29-18.37,1.95-21.83-4.15C84.55,102,86.58,103.8,88.9,103.65Z"/><path class="cls-11" d="M148.9,103.68l-.75,1-11.4,9c-1.07.2-2,1.2-3.45.5.81-3.21,4.92-4.13,5.39-7.5a16.48,16.48,0,0,0,3-2.37C143.92,101.55,146.26,101.48,148.9,103.68Z"/><path class="cls-28" d="M29.12,153.81c-1.55-.19-4,.45-4.21-1.42-.26-2.61-.15-5.87,1.24-7.85,1.52-2.16,3,1.42,4.73,1.71,0,.8,0,1.59.05,2.37C32.15,151,33.46,153.39,29.12,153.81Z"/><path class="cls-9" d="M66.8,110.93,62,105.64c-2.2-4.1-6-7.12-7.75-11.51a18.65,18.65,0,0,1-.36-3.21c4.33,5.75,7.37,11,12.12,14.75l2.75,3.09Z"/><path class="cls-13" d="M119.89,118.72l.09-5.06c1.23-4.25-.58-8.7.89-12.94h0c1.14.34,2.39.88,2.48,2.1.43,5.92,1.8,11.9-.82,17.69-.39-5.82,0-11.64-.16-16.43-.13,4.79.22,10.61-.16,16.43l-1.34.19C120,120.3,120.42,119.28,119.89,118.72Z"/><path class="cls-29" d="M119.89,118.72c.33.66.65,1.32,1,2-5.45,1.87-11.1.79-16.65,1-6.08.19-12.18,0-18.26,0-2.15,0-4.32.08-6-1.53,12.22.82,24.46.18,36.7.34A3.51,3.51,0,0,0,119.89,118.72Z"/><path class="cls-30" d="M124.89,93.67l3-3.75c.74-.65,1.45-1.34,2.23-2s2.23-2.43,2.49-1.93c.77,1.56,2.6,2.47,2.89,3.87s-1.77,1.65-3,2.07C130.06,92.86,127.64,94,124.89,93.67Z"/><path class="cls-31" d="M169.38,159l-6.31-1.17c-1-.17-2.23-.1-2.45-1.26a3.33,3.33,0,0,1,.92-2.13,2,2,0,0,1,3.07-.29l5.46,4Z"/><path class="cls-32" d="M29.12,153.81c2-1.24,2.06-3.16,1.81-5.19a24.36,24.36,0,0,1,2.47,1.61c1,.82,2.74,1.42,2.63,2.77-.17,2-2,1.1-3.19,1.1-2.41,0-1.53,2.62-2.83,3.48Z"/><path class="cls-15" d="M74,113l1.09-1.3c1.65-3.18.25-6.8,1.24-10.37C79.54,106.74,78.37,112,74,113Z"/><path class="cls-33" d="M156,176.79c.95,3,3,3.84,6.05,3.94,5.23.16,10.56-1,15.7.9l.09.18a57.21,57.21,0,0,1-22.09-.09C155.86,180.08,156,178.44,156,176.79Z"/><path class="cls-21" d="M155.78,181.72l22.09.08-1.1.89a94.5,94.5,0,0,1-20.93,0C155.81,182.37,155.79,182,155.78,181.72Z"/><path class="cls-34" d="M155.84,182.69h20.93A48.14,48.14,0,0,1,155.84,182.69Z"/><path class="cls-35" d="M160.05,137.72c1,1.73,2.9,3.52-.26,5-1.13-.38-3,.46-3.19-1.42C156.36,139,159,139,160.05,137.72Z"/><path class="cls-36" d="M122.2,120.52c-.77-5.56-.33-11.1.19-16.64.36,5.55,1.49,11.08.13,16.64Z"/><path class="cls-37" d="M4,189.83c4.68-.84,9.56.93,14.13-1.16.27.66.55,1.31.82,2C14,190.35,8.93,191.47,4,189.83Z"/><path class="cls-11" d="M120.94,50.81c-.72,1-1.45,1.14-2.2,0Z"/><path class="cls-5" d="M122.88,51.76l-1-.86C122.54,50.81,122.76,51.23,122.88,51.76Z"/><path class="cls-38" d="M111.76,48.61c-4.76-1.66-9.7-.76-14.55-1-2-.12-4.24.85-6.06-.83,5.13-1.23,10.39.2,15.53-.77C108.69,46.25,110.92,46.09,111.76,48.61Z"/><path class="cls-39" d="M111.41,23.24l-6.79-.89C107.09,20.77,109.29,21.6,111.41,23.24Z"/><path class="cls-40" d="M106.68,46c-5.11,1.49-10.36.32-15.53.77l-.25-1Z"/><path class="cls-41" d="M100.91,87.74c1.51.4,4.65-.41,2.15,2.94-1.47-1.65-3.33-1.21-5-.61-2.08.77-3.16-.73-4.65-2.33Z"/><path class="cls-8" d="M58,107.75c-.69,2.62,1.88,3.13,3,4.5,1.68,2,3,3.89.85,6.33-6.7,1.57-12.1-.28-16-6.12l-.83-2.79c7-1.3.53-3.31,0-4.36-1.23-2.29-3-4.26-2.91-7.55,4.85,1.62,7.16,6.33,11.58,7.81-.5-1.25.52-.89.9-.71A12.45,12.45,0,0,1,58,107.75Z"/><path class="cls-42" d="M44.06,115.83c.68,1.59,1.78,3.65-1.56,2.26a38.68,38.68,0,0,1-5.21-3.27c-.17,1.77-.31,3.3-.46,4.83-3.51-3.15-1.66-7.05-1.43-10.69A1.79,1.79,0,0,1,37,107.33a2.22,2.22,0,0,1,2.26,1.61A19.73,19.73,0,0,0,44.06,115.83Z"/><path class="cls-21" d="M58,107.75c-1.74-.14-2.91-1.38-4.28-2.19-.75-1.73-1.5-3.47-2.5-5.8,4.11,1.32,4.71,5.51,7.79,6.92.61.59,2,1.12,1.31,2C59.74,109.39,58.77,108.17,58,107.75Z"/><path class="cls-21" d="M158.79,114.49c-1.39,1.25-2.42,3-4.51,3.74-.5-3.2,3.4-4.5,2.44-7.45,2.6.11,4.8-4.47,6-2.67C164.49,110.74,160,112.15,158.79,114.49Z"/><path class="cls-43" d="M165.37,114.1c1.83.19,2.33,1.6,2.66,3.07.19.86-.14,1.91-1.12,1.69-1.72-.38-2.66-1.93-3.19-3.44C163.33,114.35,164.66,114.41,165.37,114.1Z"/><path class="cls-1" d="M120.87,100.72c-.37,4.31.75,8.72-.89,12.94V102.89c-2.84.6-4.61,2.69-7.08,2.67C113.56,100.67,118,102,120.87,100.72Z"/><path class="cls-44" d="M113.87,93.7c-1.26,3.26-5.41,4.25-6.17,7.91-1.47,0-3,.24-4.77-1.07C106.45,97.83,109.55,94.87,113.87,93.7Z"/></g></g></svg>