<svg xmlns="http://www.w3.org/2000/svg" viewBox="0 0 429.23 348.21"><defs><style>.cls-1{fill:#f33d56;}.cls-2{fill:#232525;}.cls-3{fill:#1cb7b3;}.cls-4{fill:#d4d6d6;}.cls-5{fill:#2c2f30;}.cls-6{fill:#a6a7a8;}.cls-7{fill:#e3f2f1;}.cls-8{fill:#fcfbfb;}.cls-9{fill:#394040;}.cls-10{fill:#393739;}.cls-11{fill:#454b4a;}.cls-12{fill:#fbb306;}.cls-13{fill:#eedcdf;}.cls-14{fill:#767676;}.cls-15{fill:#fdca05;}</style></defs><g id="Layer_2" data-name="Layer 2"><g id="Layer_1-2" data-name="Layer 1"><path class="cls-1" d="M78.05,51c.2-2,.47-4,.58-5.94.51-9.7,5.37-14.58,15.15-14.73s19.32,0,29,0l254.34,0a79.84,79.84,0,0,1,8.48.18c7.35.78,12.24,6,12.25,13.32q.09,72.2,0,144.39c0,7.32-5.67,12.82-13,13.07-6.32.21-12.64.26-19,.39a10.28,10.28,0,0,0-2-.36c-22.78,0-45.56.05-68.35,0-2.77,0-4.7,1.34-6.69,2.85-14.19,10.72-28.46,21.35-42.53,32.22-3.63,2.81-8.08,4.7-10.64,8.8h.18a1.84,1.84,0,0,0-2.05,1.07l.06,0-1.36,1c-1.68.38-2.5-.31-2.49-2,1.94-5.61,2.57-11.46,3.12-17.32,1.35-6.68,2.73-13.35,4-20,1.28-6.47,1.23-6.53-5.18-6.53q-68.45,0-136.9,0c-11.6,0-16.31-4.8-16.3-16.38q.06-63.7.05-127.4c0-2.06.8-4.34-.91-6.19ZM119,108.43l-2.3,1.59a3.87,3.87,0,0,0-1.5,3.51c0,6.8-.4,13.64.09,20.4,1.12,15.55,12.78,28.12,27,29.64,17.27,1.84,31.28-7.07,36.18-23.07,2.44-8,1-16.19,1.21-24.3.21-6.79-.65-7.47-7.32-7.52l-43.4-.28c0-6.16-.11-12.32,0-18.47.18-11,7.92-18.81,18.42-18.86a17.9,17.9,0,0,1,18.39,18.72c-.09,3.41,3.28,6.57.47,10.11-.5.63.83,1.2,1.68,1.22q3,0,6,0c.85,0,2.16-.75,1.62-1.24-3-2.69.23-4.93.35-7.32.86-16.59-11.13-30.65-26.9-31.28-16.8-.66-29.65,11.89-29.84,29.19C119,96.45,119,102.44,119,108.43ZM231.87,146c1.33.08,2.65.23,4,.23,32.13,0,64.26.11,96.39,0,22-.07,34.49-21.26,24.35-40.91-3.67-9.68-13.44-16-25.29-16-32.14-.06-64.28,0-96.42,0A30.7,30.7,0,0,0,224.6,91c-11.74,4.1-19.5,16.28-18.48,29,1,12.38,9.68,22.85,20.78,25l1,.17A4.18,4.18,0,0,0,231.87,146Z"/><path class="cls-2" d="M138,289.29l-125.38-.14C2.11,289.14,0,287.08,0,276.71V63.91C0,52.75,1.77,51.05,13.11,51.05L78.05,51l-.09.29c-.59,6.34,1.15,12.79-1,19l-19-.07q-16.23,0-32.46,0c-6.5,0-6.52,0-6.52,6.79q0,57.66,0,115.32,0,36.94.14,73.89c-.5,3.71,1.84,4,4.63,4q67.08-.07,134.15-.1h12.07l41.9,0q65.1,0,130.21.16c3.78,0,4.87-1.49,4.83-5.05-.14-14-.1-27.93-.12-41.9,0-3.32,0-6.64.07-10,.15-12.65-1.6-11,11.13-11.12,6.87-.05,6.88,0,6.9,6.9l.18,73.74c-.88,5.23-4.62,6.33-9.14,6.33q-22.2,0-44.38,0l-83.77.14Z"/><path class="cls-3" d="M254.83,335.12c34.1,0,68.15.94,102,5.5-4.26,3.25-9.21,2.87-13.81,3.33-10.57,1.08-21.21,1.69-31.83,2.07-15.8.57-31.61.67-47.4,1.15-40.78,1.25-81.57,1.17-122.36.82q-39.91-.33-79.82-2c-13.75-.59-27.57-1-41.25-2.89a11.56,11.56,0,0,1-5.56-2.21c31.91-4.8,64-5.54,96.05-5.73-.07,4,2.94,2.83,5,2.84,22.16.06,44.32,0,66.48,0,22.49,0,45,0,67.48,0C251.88,338,254.92,339.12,254.83,335.12Z"/><path class="cls-4" d="M229.5,307.93l3.21,21.33a89.25,89.25,0,0,1-8.91.77c-30.1-.31-60.22,1.13-90.29-1.09.14-7.94,2-15.67,2.88-23.53.64,3.27,3.21,2.78,5.5,2.78q17.18,0,34.35,0Q202.87,308.09,229.5,307.93Z"/><path class="cls-5" d="M365,282.82l-.18-73.74c0-6.89,0-7-6.9-6.9-12.73.1-11-1.53-11.13,11.12,0,3.33-.05,6.65-.07,10q-27.94,0-55.89-.06a10.17,10.17,0,0,0-3.92.48c-11.85,5.16-23.63,10.49-35.48,15.64a99.2,99.2,0,0,1-15.77,5.77c2.56-4.1,7-6,10.64-8.8,14.07-10.87,28.34-21.5,42.53-32.22,2-1.51,3.92-2.86,6.69-2.85,22.79.07,45.57,0,68.35,0a10.28,10.28,0,0,1,2,.36q0,37.95-.11,75.89C365.74,279.28,366.25,281.18,365,282.82Z"/><path class="cls-6" d="M229.5,307.93q-26.62.13-53.26.25-17.18,0-34.35,0c-2.29,0-4.86.49-5.5-2.78.61-5.37,2.06-10.65,1.62-16.12h89.73C227.24,295.61,229.19,301.69,229.5,307.93Z"/><path class="cls-7" d="M133.51,328.94c30.07,2.22,60.19.78,90.29,1.09a89.25,89.25,0,0,0,8.91-.77c3.81.06,7.63.26,11.44.13,4.75-.16,8.41,1.42,10.68,5.73.09,4-3,2.83-5,2.83-22.5.07-45,0-67.48,0-22.16,0-44.32,0-66.48,0-2.06,0-5.07,1.14-5-2.84,2.29-4.3,6-5.81,10.71-5.74C125.57,329.43,129.57,329.85,133.51,328.94Z"/><path class="cls-7" d="M397.49,8.23c0,1.81.13,3.64,0,5.43-.16,1.58-1,2.92-2.82,2.83s-2.58-1.41-2.61-3c-.08-3.45-.06-6.91,0-10.37,0-1.61.72-3,2.53-3.08,2.05,0,2.82,1.47,2.91,3.29C397.56,4.93,397.49,6.58,397.49,8.23Z"/><path class="cls-7" d="M420.61,37.08c-1.81,0-3.63.11-5.44,0a2.54,2.54,0,0,1-2.5-2.58,2.37,2.37,0,0,1,2.41-2.62c3.78-.14,7.57-.16,11.35,0a2.6,2.6,0,0,1,2.78,2.85c-.13,1.75-1.5,2.44-3.16,2.47-1.81,0-3.63,0-5.44,0Z"/><path class="cls-7" d="M419.89,11.91a4.33,4.33,0,0,1-.65,1.49c-3,3.11-5.95,6.21-9,9.21a2.52,2.52,0,0,1-3.61.21c-1.4-1.25-1-2.75.13-3.93,2.87-3,5.82-5.88,8.77-8.77a2.7,2.7,0,0,1,3.2-.57C419.54,10,419.81,10.71,419.89,11.91Z"/><path class="cls-8" d="M356.59,105.33c10.14,19.65-2.38,40.84-24.35,40.91-32.13.11-64.26,0-96.39,0-1.33,0-2.65-.15-4-.23a5.14,5.14,0,0,0-4-.79l-1-.17c-.37-1.29-1.51-1.62-2.54-2.17A25.58,25.58,0,0,1,211.68,115c2.85-12.07,14-20.7,27.15-20.73,31-.08,61.95,0,92.92,0,6.53,0,12.41,2.19,17.89,5.53C352.18,101.33,353.52,104.42,356.59,105.33Zm-74.73,7.89c-1.67.08-2.65-1.25-3.9-2-1.79-1-3.33-2.88-5,.39-1.43,2.75-1.13,4.18,1.89,5.1a29.25,29.25,0,0,1,4.06,1.93c-.9,1.58-2.46,1.91-3.8,2.44-2.41,1-4,1.7-2.26,4.93,1.92,3.57,3.45,1.57,5.41.45,1.19-.67,2.1-2.19,3.51-1.75,2.28,2.62-3.09,7.87,2.83,8.38,8.08.7.59-6.4,3.84-8.26s5.35,7.51,9,1-5.47-3.3-5.58-5.5c.24-5,9.27-1.57,5.51-8.28s-5.63,2.93-9.22.81a30.21,30.21,0,0,1,0-4.22c.3-2.37.57-4.18-2.9-4.18-3.2,0-3.53,1.47-3.25,4,.17,1.59,1,3.25-.12,4.82Zm47.23-.32c.12-1.16.24-3,.53-4.76.38-2.39-.05-3.72-3-3.71s-3.91,1-3.28,3.87c.37,1.67.74,3.44.34,4.56-3.8,1.88-5.8-7.5-9.45-.77-3.45,6.36,5,3.53,5.52,6.64,0,4-8.82.43-5.69,6.79,3.55,7.21,6-2.5,9.11-.75,3.51,1.92-4.4,8.43,3.28,8.35,7.2-.06.46-6.2,2.43-7.86,4-2.3,5.76,6.57,9.47,1,4.43-6.6-5.08-4-5.33-7.42,1-3.07,8.85-.71,5.63-6.73C335.07,105.39,333,114.61,329.09,112.9ZM230.14,115,237,118.4c.26,4.36-8.62.67-5.59,7,3.36,7.08,6-2.15,9-.6,3,2.2-3.26,7.6,2.74,8.27,7.84.88,1.21-6.24,4-8.15,3.22-2,5.11,7.35,8.7,1,3.74-6.65-5.32-3.49-5.54-7.42a28.5,28.5,0,0,1,4.06-2c3-.93,2.82-2.37,1.57-4.82s-2.51-2.38-4.5-.9c-1.26.93-2.61,2.9-4.19,2s-.42-3-.39-4.58c.05-2.22,0-3.82-3-3.85-3.26,0-3.36,1.65-3.18,4.13.11,1.49,1,3.22-.49,4.59C232.8,109.42,232.8,109.42,230.14,115Z"/><path class="cls-9" d="M235.69,245.1a99.2,99.2,0,0,0,15.77-5.77c11.85-5.15,23.63-10.48,35.48-15.64a10.17,10.17,0,0,1,3.92-.48q27.94,0,55.89.06c0,14,0,27.94.12,41.9,0,3.56-1.05,5.06-4.83,5.05q-65.1-.18-130.21-.16c4.76-9.26,11.63-17,18.2-24.91,0,1.7.81,2.39,2.49,2l1.36-1-.06,0,2.05-1.07Z"/><path class="cls-10" d="M77,70.32c2.16-6.25.42-12.7,1-19,1.71,1.85.91,4.13.91,6.19q0,63.71-.05,127.4c0,11.58,4.7,16.38,16.3,16.38q68.46,0,136.9,0c6.41,0,6.46.06,5.18,6.53-1.32,6.68-2.7,13.35-4,20,0-3.69-1.89-4.76-5.37-4.69-8,.17-15.94,0-23.91,0,2.8-6,6.92-11.21,10.88-16.48.93-1.25,3.1-3.4,0-4.16-3.28-.81-7.85-1.54-9.76,1.66-3.86,6.46-10.64,11.08-12.15,19l-2,0c-38.73,0-77.46-.08-116.19.05-6.84,0-12.46-1.53-15.72-8.08v-2c4.2-5.55,8.62-10.95,12.5-16.72,2.61-3.87,6.58-7.07,6.45-12.54q-.63-26-.9-52c-.07-7,.75-14,.42-20.84C76.74,97.51,77.3,83.92,77,70.32Z"/><path class="cls-11" d="M203.87,223.16c8,0,15.94.15,23.91,0,3.48-.07,5.42,1,5.37,4.69-.55,5.86-1.18,11.71-3.12,17.32-6.57,7.94-13.44,15.65-18.2,24.91l-41.9,0c.25-2.25,1.59-4,2.85-5.71,4.9-6.82,10.07-13.46,14.71-20.45s10.45-13.22,14.43-20.69Z"/><path class="cls-12" d="M128.89,108.4l43.4.28c6.67,0,7.53.73,7.32,7.52-.25,8.11,1.23,16.31-1.21,24.3-4.9,16-18.91,24.91-36.18,23.07-14.17-1.52-25.83-14.09-26.95-29.64-.49-6.76-.1-13.6-.09-20.4a3.87,3.87,0,0,1,1.5-3.51l.37.36c0,8.28-.12,16.56-.15,24.84,0,9.81,11.18,26,25.69,26.89,2.95.18,4.38-.81,4.32-3.85-.08-4,0-7.95,0-11.93,3.21-.46,3.76-2.68,3.82-5.45.06-2.26-.52-4.56.9-6.77,4.49-7,2.45-11.12-5.72-12a27.33,27.33,0,0,0,1-4.28c.49-7.22.13-7.44-7.05-7.63-3.72-.1-7.61,1-11.14-1.09A.61.61,0,0,1,128.89,108.4Z"/><path class="cls-8" d="M128.89,108.4a.6.6,0,0,0-.22.67l-1.8.27h-4l-3.85-.92c0-6,0-12,.08-18,.19-17.3,13-29.85,29.84-29.19,15.77.63,27.76,14.69,26.9,31.28-.12,2.39-3.38,4.63-.35,7.32.54.49-.77,1.22-1.62,1.24q-3,.06-6,0c-.85,0-2.18-.59-1.68-1.22,2.81-3.54-.56-6.7-.47-10.11A17.9,17.9,0,0,0,147.3,71.07c-10.5.05-18.24,7.91-18.42,18.86C128.78,96.08,128.88,102.24,128.89,108.4Z"/><path class="cls-13" d="M356.59,105.33c-3.07-.91-4.41-4-6.95-5.55-5.48-3.34-11.36-5.53-17.89-5.53-31,0-61.94-.06-92.92,0-13.17,0-24.3,8.66-27.15,20.73a25.58,25.58,0,0,0,12.68,27.88c1,.55,2.17.88,2.54,2.17-11.1-2.14-19.8-12.61-20.78-25-1-12.74,6.74-24.92,18.48-29a30.7,30.7,0,0,1,10.28-1.73c32.14,0,64.28,0,96.42,0C343.15,89.37,352.92,95.65,356.59,105.33Z"/><path class="cls-12" d="M119,108.43l3.85.92c-1.76,1.26-3.85.68-5.78,1l-.37-.36Z"/><path class="cls-13" d="M227.91,145.22a5.14,5.14,0,0,1,4,.79A4.18,4.18,0,0,1,227.91,145.22Z"/><path class="cls-5" d="M235.87,245.1l-2.05,1.07A1.84,1.84,0,0,1,235.87,245.1Z"/><path class="cls-5" d="M233.88,246.14l-1.36,1Z"/><path class="cls-9" d="M58.92,213.2c0,.66,0,1.33,0,2a19.43,19.43,0,0,0-5.21,5.29q-14.38,19.94-28.91,39.78c-1.61,2.2-2.69,5.07-5.73,6q-.06-36.95-.14-73.89,0-57.66,0-115.32c0-6.76,0-6.78,6.52-6.79q16.23,0,32.46,0,0,68.09,0,136.18C58,208.71,57.42,211.12,58.92,213.2Z"/><path class="cls-11" d="M19.08,266.23c3-.9,4.12-3.77,5.73-6q14.58-19.8,28.91-39.78a19.43,19.43,0,0,1,5.21-5.29c3.26,6.55,8.88,8.1,15.72,8.08,38.73-.13,77.46-.06,116.2-.05-6.61,9.44-13.16,18.92-19.84,28.3-4.39,6.18-9.63,11.77-13.15,18.57q-67.08,0-134.15.1C20.92,270.2,18.58,269.94,19.08,266.23Z"/><path class="cls-5" d="M58.92,213.2c-1.5-2.08-1-4.49-1-6.77q0-68.09,0-136.18l19,.07c.35,13.6-.21,27.19.44,40.81C77.72,118,76.9,125,77,132q.24,26,.9,52c.13,5.47-3.84,8.67-6.45,12.54C67.54,202.25,63.12,207.65,58.92,213.2Z"/><path class="cls-9" d="M157.86,270.09c3.52-6.8,8.76-12.39,13.15-18.57,6.68-9.38,13.23-18.86,19.84-28.3l2,0,9,.07c-4,7.47-9.79,13.67-14.43,20.69s-9.81,13.63-14.71,20.45c-1.26,1.74-2.6,3.46-2.85,5.71Z"/><path class="cls-14" d="M281.83,113.27c1.1-1.57.29-3.23.12-4.82-.28-2.55.05-4,3.25-4,3.47,0,3.2,1.81,2.9,4.18a30.21,30.21,0,0,0,0,4.22c3.59,2.12,5.5-7.43,9.22-.81s-5.27,3.29-5.51,8.28c.11,2.2,9.17-1.06,5.58,5.5s-5.77-2.82-9-1,4.24,9-3.84,8.26c-5.92-.51-.55-5.76-2.83-8.38-1.41-.44-2.32,1.08-3.51,1.75-2,1.12-3.49,3.12-5.41-.45-1.73-3.23-.15-4,2.26-4.93,1.34-.53,2.9-.86,3.8-2.44a29.25,29.25,0,0,0-4.06-1.93c-3-.92-3.32-2.35-1.89-5.1,1.71-3.27,3.25-1.44,5-.39,1.25.74,2.23,2.07,3.9,2a1.48,1.48,0,0,0,.25.35s.17-.09.27-.14Z"/><path class="cls-14" d="M329.09,112.9c3.93,1.71,6-7.51,9.59-.75,3.22,6-4.62,3.66-5.63,6.73.25,3.45,9.76.82,5.33,7.42-3.71,5.53-5.44-3.34-9.47-1-2,1.66,4.77,7.8-2.43,7.86-7.68.08.23-6.43-3.28-8.35-3.08-1.75-5.56,8-9.11.75-3.13-6.36,5.72-2.79,5.69-6.79-.49-3.11-9-.28-5.52-6.64,3.65-6.73,5.65,2.65,9.45.77.4-1.12,0-2.89-.34-4.56-.63-2.87.33-3.85,3.28-3.87s3.35,1.32,3,3.71C329.33,109.93,329.21,111.74,329.09,112.9Z"/><path class="cls-14" d="M230.14,115c2.66-5.57,2.66-5.57,10.09-1.82,1.45-1.37.6-3.1.49-4.59-.18-2.48-.08-4.16,3.18-4.13,3,0,3.06,1.63,3,3.85,0,1.56-1.24,3.7.39,4.58s2.93-1.12,4.19-2c2-1.48,3.18-1.67,4.5.9s1.39,3.89-1.57,4.82a28.5,28.5,0,0,0-4.06,2c.22,3.93,9.28.77,5.54,7.42-3.59,6.38-5.48-2.93-8.7-1-2.84,1.91,3.79,9-4,8.15-6-.67.23-6.07-2.74-8.27-2.95-1.55-5.63,7.68-9,.6-3-6.37,5.85-2.68,5.59-7Z"/><path class="cls-5" d="M201.92,223.25l-9-.07c1.51-7.91,8.29-12.53,12.15-19,1.91-3.2,6.48-2.47,9.76-1.66,3.06.76.89,2.91,0,4.16-4,5.27-8.08,10.44-10.88,16.48Z"/><path class="cls-15" d="M117.05,110.38c1.93-.35,4,.23,5.78-1H125a1.22,1.22,0,0,0,1.91,0l1.8-.27c3.53,2.13,7.42,1,11.14,1.1,7.18.19,7.54.41,7.05,7.63a27.33,27.33,0,0,1-1,4.28c-1.75.9-3.51,1.79-4.47,3.67-1.18,2.32,3.23,18.94,5.47,20.58,0,4,0,7.95,0,11.93.06,3-1.37,4-4.32,3.85-14.51-.87-25.72-17.08-25.69-26.89C116.93,126.94,117,118.66,117.05,110.38Z"/><path class="cls-2" d="M146.86,146.33c-2.24-1.64-6.65-18.26-5.47-20.58,1-1.88,2.72-2.77,4.47-3.67,8.17.91,10.21,5.08,5.72,12-1.42,2.21-.84,4.51-.9,6.77C150.62,143.65,150.07,145.87,146.86,146.33Z"/><path class="cls-12" d="M126.87,109.34a1.22,1.22,0,0,1-1.91,0Z"/><path class="cls-8" d="M281.83,113.27l.55.16c-.1,0-.24.16-.27.14a1.48,1.48,0,0,1-.25-.35Z"/></g></g></svg>